<svg xmlns="http://www.w3.org/2000/svg" version="1.1" xmlns:xlink="http://www.w3.org/1999/xlink" xmlns:svgjs="http://svgjs.dev/svgjs" width="1000" height="1000" viewBox="0 0 1000 1000"><rect width="1000" height="1000" fill="#ffffff"></rect><g transform="matrix(0.7,0,0,0.7,150.0000000000001,106.25)"><svg viewBox="0 0 320 360" data-background-color="#ffffff" preserveAspectRatio="xMidYMid meet" height="1125" width="1000" xmlns="http://www.w3.org/2000/svg" xmlns:xlink="http://www.w3.org/1999/xlink"><g id="tight-bounds" transform="matrix(1,0,0,1,0,0)"><svg viewBox="0 0 320 360" height="360" width="320"><g><svg></svg></g><g><svg viewBox="0 0 320 360" height="360" width="320"><g><path xmlns="http://www.w3.org/2000/svg" d="M20.961 227.22l3.726 4.658-1.863-6.056c-0.466-2.795-3.726 0.466-1.863 1.398M25.153 224.425c1.397 2.329 2.795 4.658 2.795 6.987 0 3.261 2.795 4.658 5.123 5.589-3.261-3.726-5.124-13.974-7.918-12.576M204.017 26.929c7.918 0 15.371-0.932 23.756 0.931 20.495 5.124 37.729 15.371 49.374 29.811l32.606 52.169c1.397 13.042 4.192 27.482 3.726 43.319 3.261 0 2.795-4.658 6.521-5.59-3.726 9.316-5.59 20.961-6.521 34.469-2.329-7.453 0-18.632 0.466-24.687-3.261 5.124-5.124 1.397-5.124-0.932 0.466-3.726-1.397-3.261-2.795-4.658-5.124-4.658-8.384-9.782-12.11-17.7 2.329-6.055 2.795-14.905-4.658-19.563-2.329-1.397-5.124-3.726-6.521-7.453-1.863-5.124-5.124-11.179-4.193-19.097 0.466-2.329-6.987 5.124-11.179 1.863-18.166-12.576-36.332-27.016-58.224-39.127-11.645 0-20.029-4.192-24.221-9.316-3.726-4.658-0.932-10.713 4.658-11.179 3.261 0 6.987-0.932 9.782 0.932 0.466-1.863 2.329-4.192 4.657-4.192M157.904 16.215l0.932 0.466c4.658 0.932 6.987 7.453 12.11 5.124 0 3.261 0.466 6.521-0.466 8.85-1.397 3.726-5.59 3.726-8.85 3.726-31.208-1.863-49.374 11.179-68.471 22.358-5.124 3.261-10.713 5.59-14.906 9.782-20.029 18.632-41.921 35.866-47.045 70.335l-4.192 38.195c-0.466 4.192-5.124 8.384-4.192 13.508l3.26 22.824c-3.261-3.261-5.124 0.932-4.192 2.795 0.466 1.397 2.329 6.055 5.124 1.863 3.726 6.987 7.453 20.495 12.576 26.55 15.837 18.632 36.332 35.4 53.101 52.169 4.192-0.932 7.453-0.932 8.384-3.727 1.397 2.795-1.397 5.59-3.726 6.056 7.453 4.658 15.837 8.85 27.016 9.781 14.44 0.932 27.948 3.261 40.524 6.522 6.521-1.863 13.042-2.795 20.029-3.261 2.329 0 3.726-3.726 6.521-4.658l0.466-4.658c2.795 4.192 2.329-1.397 0.466-4.192 3.261 2.795 4.192 5.124 5.589 6.987 0-1.397 3.726-6.521 3.727-0.466l0.931-6.055c1.397-0.932 1.863 5.124 3.261 0.931 1.397-4.192 4.192-0.932 6.987-2.329-0.932 1.863-0.466 5.59 2.794 3.261l3.727-3.261c2.329 5.59 6.055 3.261 7.918 2.329 20.495-13.042 40.99-28.413 60.553-43.784l-0.466 6.055 2.329-7.453c2.329 2.329 4.192 0.466 5.124-0.931 2.795-4.658 6.521-9.316 12.577-13.508-7.453 20.029-16.303 35.866-27.482 48.908l-4.658 5.59c0 3.261-0.932 7.453-4.658 7.918-1.863 0.466-5.59-0.932-8.384 1.863-1.397 1.863 3.261 5.59-0.466 2.795-3.261-2.329-6.521 0-10.248 0.932-2.795 0.932 1.863 3.726 2.795 5.589 0.932 1.863 1.863 3.726 1.398 6.056l-5.124-5.59c-6.055 3.261-9.782 9.316-14.906 13.974-2.329 1.863-1.397 5.124-1.397 7.918-3.261 0-6.987-0.932-8.85 0.932-1.397 1.863-0.932 4.658-0.932 7.453-4.658-0.466-5.124-7.453-9.315-6.056-4.192 0.932-8.85 1.397-12.577 3.727 2.795 5.59-4.658 2.329-3.726 3.26-6.987-4.192-13.042-7.453-20.495-4.658-15.837-5.124-35.4-2.795-49.84-0.931 0-2.329 0.466-4.658-0.466-5.124-0.932 2.329-3.726 1.397-3.26 1.397-8.85-6.055-17.7-9.782-27.016-14.905-8.384 0.932-16.303-3.261-18.632-5.59-6.521-6.055-13.974-2.795-20.029-4.192-13.042-3.261-17.7-16.769-19.098-26.084-0.932-4.658-4.658-6.521-6.055-6.056-6.055-19.563-15.371-37.263-22.824-55.429-1.863-4.658-1.397-9.316-1.397-14.44 2.329 0.932 4.658 0.466 4.192-2.794-2.329-15.371-7.918-27.016-13.974-38.195 3.261-15.837 3.726-34.469 11.179-48.443 6.521-12.576 18.632-19.098 27.016-29.811 2.795-3.726 2.795-8.85 5.59-12.11 9.316-9.316 18.632-19.098 28.879-27.482 4.658-3.726 10.247 0 17.234-1.397 2.329-8.384 11.645-15.837 20.495-13.508 3.726 0.932 11.179-8.85 13.508-9.782 3.726-1.397 1.863 3.726 1.863 6.987 8.85-6.987 20.961-10.713 32.14-14.906" fill="#edbbba" fill-rule="nonzero" stroke="none" stroke-width="1" stroke-linecap="butt" stroke-linejoin="miter" stroke-miterlimit="10" stroke-dasharray="" stroke-dashoffset="0" font-family="none" font-weight="none" font-size="none" text-anchor="none" style="mix-blend-mode: normal" data-fill-palette-color="tertiary"></path></g><g transform="matrix(1,0,0,1,64,146.89751898450228)"><svg viewBox="0 0 192 66.20496203099543" height="66.20496203099543" width="192"><g><svg viewBox="0 0 192 66.20496203099543" height="66.20496203099543" width="192"><g><svg viewBox="0 0 192 66.20496203099543" height="66.20496203099543" width="192"><g transform="matrix(1,0,0,1,0,34.96481431499966)"><svg viewBox="0 0 192 31.240147715995775" height="31.240147715995775" width="192"><g id="textblocktransform"><svg viewBox="0 0 192 31.240147715995775" height="31.240147715995775" width="192" id="textblock"><g><svg viewBox="0 0 192 17.71059734772914" height="17.71059734772914" width="192"><g transform="matrix(1,0,0,1,0,0)"><svg width="192" viewBox="5 -39.04999923706055 426.0199890136719 39.29999923706055" height="17.71059734772914" data-palette-color="#edbbba"><path d="M7.6 0L7.6 0Q6.5 0 5.75-0.75 5-1.5 5-2.6L5-2.6 5-36.45Q5-37.6 5.75-38.33 6.5-39.05 7.6-39.05L7.6-39.05Q9.1-39.05 9.9-37.65L9.9-37.65 25.55-6.3 23.95-6.3 39.2-37.65Q40-39.05 41.5-39.05L41.5-39.05Q42.6-39.05 43.35-38.33 44.1-37.6 44.1-36.45L44.1-36.45 44.1-2.6Q44.1-1.5 43.33-0.75 42.55 0 41.5 0L41.5 0Q40.4 0 39.65-0.75 38.9-1.5 38.9-2.6L38.9-2.6 38.9-29.25 39.9-29.5 26.8-2.8Q25.95-1.5 24.55-1.5L24.55-1.5Q22.9-1.5 22.15-3.05L22.15-3.05 9.2-29 10.2-29.25 10.2-2.6Q10.2-1.5 9.45-0.75 8.7 0 7.6 0ZM65 0.2L65 0.2Q61.35 0.2 58.45-1.63 55.55-3.45 53.87-6.58 52.2-9.7 52.2-13.65L52.2-13.65Q52.2-17.6 54.02-20.75 55.85-23.9 58.97-25.73 62.1-27.55 66-27.55L66-27.55Q69.9-27.55 73-25.73 76.1-23.9 77.92-20.75 79.75-17.6 79.75-13.65L79.75-13.65 77.8-13.65Q77.8-9.7 76.12-6.58 74.45-3.45 71.55-1.63 68.65 0.2 65 0.2ZM66-4.3L66-4.3Q68.55-4.3 70.55-5.53 72.55-6.75 73.7-8.88 74.85-11 74.85-13.65L74.85-13.65Q74.85-16.35 73.7-18.48 72.55-20.6 70.55-21.83 68.55-23.05 66-23.05L66-23.05Q63.5-23.05 61.47-21.83 59.45-20.6 58.27-18.48 57.1-16.35 57.1-13.65L57.1-13.65Q57.1-11 58.27-8.88 59.45-6.75 61.47-5.53 63.5-4.3 66-4.3ZM77.2 0.05L77.2 0.05Q76.1 0.05 75.37-0.68 74.65-1.4 74.65-2.5L74.65-2.5 74.65-10.15 75.6-15.45 79.75-13.65 79.75-2.5Q79.75-1.4 79.02-0.68 78.3 0.05 77.2 0.05ZM98.19 0L97.3 0Q94.8 0 92.8-1.28 90.8-2.55 89.64-4.75 88.5-6.95 88.5-9.7L88.5-9.7 88.5-33.55Q88.5-34.65 89.19-35.35 89.89-36.05 91-36.05L91-36.05Q92.09-36.05 92.8-35.35 93.5-34.65 93.5-33.55L93.5-33.55 93.5-9.7Q93.5-7.7 94.59-6.35 95.69-5 97.3-5L97.3-5 99-5Q99.89-5 100.52-4.3 101.14-3.6 101.14-2.5L101.14-2.5Q101.14-1.4 100.32-0.7 99.5 0 98.19 0L98.19 0ZM97.75-22.05L86.19-22.05Q85.14-22.05 84.5-22.65 83.84-23.25 83.84-24.15L83.84-24.15Q83.84-25.15 84.5-25.75 85.14-26.35 86.19-26.35L86.19-26.35 97.75-26.35Q98.8-26.35 99.44-25.75 100.09-25.15 100.09-24.15L100.09-24.15Q100.09-23.25 99.44-22.65 98.8-22.05 97.75-22.05L97.75-22.05ZM130.49 0.05L130.49 0.05Q129.39 0.05 128.67-0.68 127.94-1.4 127.94-2.5L127.94-2.5 127.94-14.8Q127.94-17.65 126.89-19.45 125.84-21.25 124.07-22.13 122.29-23 119.99-23L119.99-23Q117.89-23 116.19-22.15 114.49-21.3 113.49-19.88 112.49-18.45 112.49-16.6L112.49-16.6 109.34-16.6Q109.34-19.75 110.87-22.23 112.39-24.7 115.04-26.15 117.69-27.6 120.99-27.6L120.99-27.6Q124.44-27.6 127.17-26.13 129.89-24.65 131.47-21.8 133.04-18.95 133.04-14.8L133.04-14.8 133.04-2.5Q133.04-1.4 132.32-0.68 131.59 0.05 130.49 0.05ZM109.94 0.05L109.94 0.05Q108.84 0.05 108.12-0.68 107.39-1.4 107.39-2.5L107.39-2.5 107.39-24.8Q107.39-25.95 108.12-26.65 108.84-27.35 109.94-27.35L109.94-27.35Q111.09-27.35 111.79-26.65 112.49-25.95 112.49-24.8L112.49-24.8 112.49-2.5Q112.49-1.4 111.79-0.68 111.09 0.05 109.94 0.05ZM109.94-9.95L109.94-9.95Q108.84-9.95 108.12-10.68 107.39-11.4 107.39-12.5L107.39-12.5 107.39-36.5Q107.39-37.65 108.12-38.35 108.84-39.05 109.94-39.05L109.94-39.05Q111.09-39.05 111.79-38.35 112.49-37.65 112.49-36.5L112.49-36.5 112.49-12.5Q112.49-11.4 111.79-10.68 111.09-9.95 109.94-9.95ZM144.59 0L144.59 0Q143.49 0 142.76-0.73 142.04-1.45 142.04-2.55L142.04-2.55 142.04-24.8Q142.04-25.95 142.76-26.65 143.49-27.35 144.59-27.35L144.59-27.35Q145.74-27.35 146.44-26.65 147.14-25.95 147.14-24.8L147.14-24.8 147.14-2.55Q147.14-1.45 146.44-0.73 145.74 0 144.59 0ZM144.59-31.8L144.59-31.8Q143.24-31.8 142.26-32.77 141.29-33.75 141.29-35.1L141.29-35.1Q141.29-36.45 142.26-37.43 143.24-38.4 144.59-38.4L144.59-38.4Q145.94-38.4 146.91-37.43 147.89-36.45 147.89-35.1L147.89-35.1Q147.89-33.75 146.91-32.77 145.94-31.8 144.59-31.8ZM163.24 0L163.14 0Q160.94 0 159.24-1.2 157.54-2.4 156.59-4.48 155.64-6.55 155.64-9.25L155.64-9.25 155.64-36.55Q155.64-37.65 156.34-38.35 157.04-39.05 158.14-39.05L158.14-39.05Q159.24-39.05 159.94-38.35 160.64-37.65 160.64-36.55L160.64-36.55 160.64-9.25Q160.64-7.4 161.34-6.2 162.04-5 163.14-5L163.14-5 164.39-5Q165.39-5 166.01-4.3 166.64-3.6 166.64-2.5L166.64-2.5Q166.64-1.4 165.69-0.7 164.74 0 163.24 0L163.24 0ZM182.53 0.2L182.53 0.2Q178.63 0.2 175.51-1.63 172.38-3.45 170.56-6.6 168.73-9.75 168.73-13.7L168.73-13.7Q168.73-17.65 170.41-20.78 172.08-23.9 174.98-25.73 177.88-27.55 181.53-27.55L181.53-27.55Q184.48-27.55 186.98-26.33 189.48-25.1 191.19-23L191.19-23 191.19-36.5Q191.19-37.65 191.91-38.35 192.63-39.05 193.73-39.05L193.73-39.05Q194.88-39.05 195.58-38.35 196.28-37.65 196.28-36.5L196.28-36.5 196.28-13.7Q196.28-9.75 194.46-6.6 192.63-3.45 189.53-1.63 186.44 0.2 182.53 0.2ZM182.53-4.3L182.53-4.3Q185.08-4.3 187.08-5.53 189.08-6.75 190.23-8.9 191.38-11.05 191.38-13.7L191.38-13.7Q191.38-16.4 190.23-18.5 189.08-20.6 187.08-21.83 185.08-23.05 182.53-23.05L182.53-23.05Q180.03-23.05 178.01-21.83 175.98-20.6 174.81-18.5 173.63-16.4 173.63-13.7L173.63-13.7Q173.63-11.05 174.81-8.9 175.98-6.75 178.01-5.53 180.03-4.3 182.53-4.3ZM218.13 0.2L218.13 0.2Q213.98 0.2 210.76-1.58 207.53-3.35 205.71-6.48 203.88-9.6 203.88-13.65L203.88-13.65Q203.88-17.75 205.61-20.88 207.33-24 210.38-25.78 213.43-27.55 217.38-27.55L217.38-27.55Q221.28-27.55 224.08-25.83 226.88-24.1 228.36-21.08 229.83-18.05 229.83-14.1L229.83-14.1Q229.83-13.15 229.18-12.53 228.53-11.9 227.53-11.9L227.53-11.9 207.38-11.9 207.38-15.9 227.38-15.9 225.33-14.5Q225.28-17 224.33-18.98 223.38-20.95 221.63-22.1 219.88-23.25 217.38-23.25L217.38-23.25Q214.53-23.25 212.51-22 210.48-20.75 209.43-18.57 208.38-16.4 208.38-13.65L208.38-13.65Q208.38-10.9 209.63-8.75 210.88-6.6 213.08-5.35 215.28-4.1 218.13-4.1L218.13-4.1Q219.68-4.1 221.31-4.67 222.93-5.25 223.93-6L223.93-6Q224.68-6.55 225.56-6.58 226.43-6.6 227.08-6.05L227.08-6.05Q227.93-5.3 227.98-4.4 228.03-3.5 227.18-2.85L227.18-2.85Q225.48-1.5 222.96-0.65 220.43 0.2 218.13 0.2ZM263.13 0L254.08 0Q252.98 0 252.23-0.75 251.48-1.5 251.48-2.6L251.48-2.6 251.48-36.45Q251.48-37.6 252.23-38.33 252.98-39.05 254.08-39.05L254.08-39.05 263.13-39.05Q267.43-39.05 270.95-37.63 274.48-36.2 277.08-33.58 279.68-30.95 281.08-27.4 282.48-23.85 282.48-19.55L282.48-19.55Q282.48-15.25 281.08-11.68 279.68-8.1 277.08-5.48 274.48-2.85 270.95-1.43 267.43 0 263.13 0L263.13 0ZM256.68-34.45L256.68-4.6 263.13-4.6Q267.33-4.6 270.55-6.53 273.78-8.45 275.63-11.83 277.48-15.2 277.48-19.55L277.48-19.55Q277.48-23.95 275.63-27.3 273.78-30.65 270.55-32.55 267.33-34.45 263.13-34.45L263.13-34.45 256.68-34.45ZM301.63 0.25L301.63 0.25Q298.18 0.25 295.45-1.23 292.73-2.7 291.15-5.55 289.58-8.4 289.58-12.55L289.58-12.55 289.58-24.85Q289.58-25.95 290.3-26.68 291.03-27.4 292.13-27.4L292.13-27.4Q293.23-27.4 293.95-26.68 294.68-25.95 294.68-24.85L294.68-24.85 294.68-12.55Q294.68-9.75 295.73-7.93 296.78-6.1 298.58-5.23 300.38-4.35 302.63-4.35L302.63-4.35Q304.78-4.35 306.45-5.2 308.13-6.05 309.13-7.5 310.13-8.95 310.13-10.75L310.13-10.75 313.28-10.75Q313.28-7.65 311.75-5.15 310.23-2.65 307.6-1.2 304.98 0.25 301.63 0.25ZM312.68 0L312.68 0Q311.58 0 310.85-0.73 310.13-1.45 310.13-2.55L310.13-2.55 310.13-24.85Q310.13-26 310.85-26.7 311.58-27.4 312.68-27.4L312.68-27.4Q313.83-27.4 314.53-26.7 315.23-26 315.23-24.85L315.23-24.85 315.23-2.55Q315.23-1.45 314.53-0.73 313.83 0 312.68 0ZM336.62 0.2L336.62 0.2Q332.62 0.2 329.5-1.63 326.37-3.45 324.6-6.58 322.82-9.7 322.82-13.65L322.82-13.65Q322.82-17.7 324.57-20.85 326.32-24 329.37-25.78 332.42-27.55 336.37-27.55L336.37-27.55Q339.32-27.55 341.77-26.43 344.22-25.3 346.17-23.05L346.17-23.05Q346.87-22.25 346.67-21.4 346.47-20.55 345.57-19.9L345.57-19.9Q344.87-19.4 344.02-19.58 343.17-19.75 342.47-20.45L342.47-20.45Q340.02-23.05 336.37-23.05L336.37-23.05Q333.82-23.05 331.87-21.88 329.92-20.7 328.82-18.6 327.72-16.5 327.72-13.65L327.72-13.65Q327.72-10.95 328.85-8.85 329.97-6.75 331.97-5.53 333.97-4.3 336.62-4.3L336.62-4.3Q338.37-4.3 339.7-4.73 341.02-5.15 342.12-6.05L342.12-6.05Q342.92-6.7 343.77-6.78 344.62-6.85 345.27-6.3L345.27-6.3Q346.12-5.6 346.22-4.73 346.32-3.85 345.62-3.15L345.62-3.15Q342.02 0.2 336.62 0.2ZM359.27-17.1L356.72-17.1Q356.72-20.1 358.2-22.48 359.67-24.85 362.17-26.25 364.67-27.65 367.67-27.65L367.67-27.65Q370.67-27.65 372.15-26.68 373.62-25.7 373.27-24.35L373.27-24.35Q373.12-23.65 372.7-23.28 372.27-22.9 371.72-22.8 371.17-22.7 370.52-22.85L370.52-22.85Q367.32-23.5 364.77-22.95 362.22-22.4 360.75-20.9 359.27-19.4 359.27-17.1L359.27-17.1ZM356.77 0L356.77 0Q355.57 0 354.92-0.63 354.27-1.25 354.27-2.5L354.27-2.5 354.27-24.85Q354.27-26.05 354.92-26.7 355.57-27.35 356.77-27.35L356.77-27.35Q358.02-27.35 358.65-26.73 359.27-26.1 359.27-24.85L359.27-24.85 359.27-2.5Q359.27-1.3 358.65-0.65 358.02 0 356.77 0ZM388.97 0.2L388.97 0.2Q384.92 0.2 381.82-1.58 378.72-3.35 376.94-6.48 375.17-9.6 375.17-13.65L375.17-13.65Q375.17-17.75 376.94-20.88 378.72-24 381.82-25.78 384.92-27.55 388.97-27.55L388.97-27.55Q392.97-27.55 396.07-25.78 399.17-24 400.94-20.88 402.72-17.75 402.72-13.65L402.72-13.65Q402.72-9.6 400.97-6.48 399.22-3.35 396.12-1.58 393.02 0.2 388.97 0.2ZM388.97-4.3L388.97-4.3Q391.57-4.3 393.57-5.5 395.57-6.7 396.69-8.8 397.82-10.9 397.82-13.65L397.82-13.65Q397.82-16.4 396.69-18.53 395.57-20.65 393.57-21.85 391.57-23.05 388.97-23.05L388.97-23.05Q386.37-23.05 384.37-21.85 382.37-20.65 381.22-18.53 380.07-16.4 380.07-13.65L380.07-13.65Q380.07-10.9 381.22-8.8 382.37-6.7 384.37-5.5 386.37-4.3 388.97-4.3ZM420.27 0.2L420.27 0.2Q416.77 0.2 413.79-0.88 410.82-1.95 409.17-3.6L409.17-3.6Q408.42-4.4 408.54-5.43 408.67-6.45 409.52-7.1L409.52-7.1Q410.52-7.9 411.49-7.78 412.47-7.65 413.17-6.9L413.17-6.9Q414.02-5.95 415.89-5.13 417.77-4.3 420.07-4.3L420.07-4.3Q422.97-4.3 424.49-5.25 426.02-6.2 426.07-7.7L426.07-7.7Q426.12-9.2 424.64-10.3 423.17-11.4 419.27-12.1L419.27-12.1Q414.22-13.1 411.94-15.1 409.67-17.1 409.67-20L409.67-20Q409.67-22.55 411.17-24.23 412.67-25.9 415.02-26.73 417.37-27.55 419.92-27.55L419.92-27.55Q423.22-27.55 425.77-26.5 428.32-25.45 429.82-23.6L429.82-23.6Q430.52-22.8 430.47-21.93 430.42-21.05 429.62-20.45L429.62-20.45Q428.82-19.9 427.72-20.1 426.62-20.3 425.87-21L425.87-21Q424.62-22.2 423.17-22.65 421.72-23.1 419.82-23.1L419.82-23.1Q417.62-23.1 416.09-22.35 414.57-21.6 414.57-20.15L414.57-20.15Q414.57-19.25 415.04-18.53 415.52-17.8 416.92-17.23 418.32-16.65 421.02-16.1L421.02-16.1Q424.77-15.35 426.94-14.2 429.12-13.05 430.07-11.53 431.02-10 431.02-8L431.02-8Q431.02-5.7 429.79-3.85 428.57-2 426.19-0.9 423.82 0.2 420.27 0.2Z" opacity="1" transform="matrix(1,0,0,1,0,0)" fill="#edbbba" class="undefined-text-0" data-fill-palette-color="primary" id="text-0"></path></svg></g></svg></g><g transform="matrix(1,0,0,1,0,20.29499855509917)"><svg viewBox="0 0 192 10.945149160896609" height="10.945149160896609" width="192"><g transform="matrix(1,0,0,1,0,0)"><svg width="192" viewBox="1.9000000953674316 -37.099998474121094 858.6799926757812 48.94999694824219" height="10.945149160896609" data-palette-color="#edbbba"><path d="M19.25 0.9Q15.9-9.2 10.5-24.45L10.5-24.45 10.15-24.45Q10.15-23.9 9.5-16.1L9.5-16.1Q8.65-4.85 8.65-4.2L8.65-4.2Q8.65-2.65 10.25-2.65L10.25-2.65 12.15-2.7 12.3-2.45 11.8 0.2 10.5 0.15Q6.9 0 6.5 0L6.5 0Q5.35 0 3.85 0.18 2.35 0.35 1.9 0.4L1.9 0.4 2.2-2.35Q3.7-2.5 4.38-3.3 5.05-4.1 5.3-6.1L5.3-6.1Q5.8-10.4 6.6-18.25 7.4-26.1 7.4-27L7.4-27Q7.4-28.35 6.5-28.93 5.6-29.5 3.35-29.65L3.35-29.65 3.15-29.95 3.55-32.2Q7.3-31.95 9.35-31.95L9.35-31.95Q9.7-31.95 12.55-32.1L12.55-32.1 13.65-32.15Q16.4-22.95 20.5-10.95L20.5-10.95 21.15-9.1 21.45-9.1Q22.05-10.85 22.4-11.85L22.4-11.85Q26.2-22.65 29.25-32.05L29.25-32.05Q29.85-32.05 30.3-32L30.3-32Q32.55-31.9 33.7-31.95L33.7-31.95Q34.8-31.95 36.75-32.1 38.7-32.25 39-32.25L39-32.25 39.15-32.05 38.85-29.7Q36.7-29.45 35.85-28.85 35-28.25 35-27L35-27Q35-25.65 35.45-18.93 35.9-12.2 36.3-7.3L36.3-7.3Q36.5-5.35 36.75-4.38 37-3.4 37.45-3.03 37.9-2.65 38.7-2.65L38.7-2.65Q39.15-2.65 39.6-2.7 40.05-2.75 40.1-2.75L40.1-2.75 40.25-2.5 39.8 0.15Q39.55 0.15 37.88 0.08 36.2 0 34.95 0L34.95 0Q33.15 0 31.05 0.2 28.95 0.4 28.85 0.4L28.85 0.4 29.15-2.35Q30.65-2.55 31.33-3.13 32-3.7 32-4.85L32-4.85Q32-5.45 31.7-9.65 31.4-13.85 31.2-16.5L31.2-16.5Q30.6-24.1 30.6-24.45L30.6-24.45 30.25-24.45Q24.75-9.2 21.45 0.5L21.45 0.5 19.25 0.9ZM95.88-9.2L96.13-8.85Q95.23-4.9 94.73-0.05L94.73-0.05 94.38 0.35Q84.33 0 79.08 0L79.08 0Q75.13 0 71.38 0.5L71.38 0.5 71.68-2.25Q73.88-2.55 74.68-3.45 75.48-4.35 75.48-6.5L75.48-6.5 75.53-26.65Q75.53-28.25 75.18-28.8 74.83-29.35 73.78-29.35L73.78-29.35 72.13-29.25 71.93-29.55 72.33-32.1Q78.18-31.95 80.23-31.95L80.23-31.95Q86.03-31.95 89.51-32.08 92.98-32.2 95.33-32.55L95.33-32.55 95.58-32.15Q95.18-30.3 94.86-27.9 94.53-25.5 94.43-23.5L94.43-23.5 91.08-23.25 91.18-25.35Q91.18-26.95 90.73-27.63 90.28-28.3 88.91-28.53 87.53-28.75 84.13-28.75L84.13-28.75Q82.58-28.75 81.98-28.65 81.38-28.55 81.21-28.18 81.03-27.8 80.98-26.9L80.98-26.9 80.58-18.05 85.53-18Q86.63-18 88.31-18.15 89.98-18.3 91.53-18.5L91.53-18.5 91.78-18.15 91.08-14.6Q85.83-14.75 84.33-14.75L84.33-14.75Q82.88-14.75 80.48-14.45L80.48-14.45 80.33-5.95Q80.33-4.55 80.56-3.95 80.78-3.35 81.48-3.15 82.18-2.95 83.93-2.95L83.93-2.95Q87.68-2.95 89.33-3.35 90.98-3.75 91.68-4.93 92.38-6.1 92.78-8.9L92.78-8.9 95.88-9.2ZM150.97 0.8Q149.57 0.8 148.14-0.43 146.72-1.65 145.57-3.9L145.57-3.9 140.72-13.2 136.82-13.2 136.72-6.55Q136.72-4.7 136.97-3.9 137.22-3.1 137.92-2.85 138.62-2.6 140.32-2.55L140.32-2.55 140.42-2.35 139.97 0.2Q139.22 0.15 137.24 0.1 135.27 0.05 133.32 0.05L133.32 0.05Q131.72 0.05 129.97 0.13 128.22 0.2 127.72 0.25L127.72 0.25 128.17-2.5Q130.42-2.75 131.14-3.55 131.87-4.35 131.87-6.5L131.87-6.5 131.92-26.75Q131.92-28.3 131.54-28.83 131.17-29.35 130.17-29.35L130.17-29.35Q129.62-29.35 129.12-29.3 128.62-29.25 128.47-29.25L128.47-29.25 128.27-29.5 128.67-32.1Q129.32-32.1 131.07-32.02 132.82-31.95 134.52-31.95L134.52-31.95Q136.37-31.95 138.44-32.02 140.52-32.1 141.32-32.15L141.32-32.15Q146.42-32.15 149.29-30 152.17-27.85 152.17-24L152.17-24Q152.17-21.05 150.32-18.55 148.47-16.05 145.07-14.45L145.07-14.45 150.07-6.45Q151.52-4.1 152.84-3.15 154.17-2.2 156.02-2.2L156.02-2.2 156.27-1.85 155.92 0.25 150.97 0.8ZM141.82-16.2Q142.97-16.7 143.84-17.23 144.72-17.75 145.72-19.25 146.72-20.75 146.72-23.1L146.72-23.1Q146.72-29.2 138.32-29.2L138.32-29.2Q137.82-29.2 137.64-28.98 137.47-28.75 137.42-28.05L137.42-28.05Q136.97-21.2 136.92-16.7L136.92-16.7 141.82-16.2ZM210.8 1.7Q206.85-4.5 203.12-10.1 199.4-15.7 197-19.18 194.6-22.65 193.95-23.55L193.95-23.55 193.6-23.55 193.4-4.75Q193.45-3.55 193.8-3.1 194.15-2.65 195.05-2.65L195.05-2.65 197.45-2.7 197.6-2.45 197.15 0.2Q196.55 0.15 194.85 0.08 193.15 0 191.35 0L191.35 0Q189.9 0 188.22 0.18 186.55 0.35 186.05 0.4L186.05 0.4 186.35-2.35Q187.9-2.55 188.62-3.28 189.35-4 189.4-5.5L189.4-5.5 190.05-26.45Q190.05-28 189.17-28.65 188.3-29.3 185.8-29.55L185.8-29.55 185.6-29.9 185.95-32.2Q186.45-32.15 188.1-32.05 189.75-31.95 190.9-31.95L190.9-31.95Q192.05-31.95 193.27-32.02 194.5-32.1 194.85-32.15L194.85-32.15Q198.2-26.85 201.62-21.75 205.05-16.65 207.32-13.35 209.6-10.05 210.2-9.2L210.2-9.2 210.55-9.2 210.5-27.15Q210.5-29.3 208.85-29.3L208.85-29.3 207.05-29.25 206.9-29.55 207.3-32.15Q207.9-32.1 209.5-32.02 211.1-31.95 212.8-31.95L212.8-31.95Q214.2-31.95 215.92-32.1 217.65-32.25 218.15-32.3L218.15-32.3 217.9-29.55Q216.2-29.3 215.42-28.58 214.65-27.85 214.6-26.4L214.6-26.4 213.9 1.05 210.8 1.7ZM298.12 0.6Q297.37 0.5 294.92 0.25 292.47 0 290.77 0L290.77 0Q289.17 0 287.27 0.23 285.37 0.45 284.77 0.55L284.77 0.55 285.07-2.25Q287.32-2.65 288.07-3.53 288.82-4.4 288.82-6.5L288.82-6.5 288.87-26.6Q288.87-28.2 288.52-28.75 288.17-29.3 287.17-29.3L287.17-29.3Q286.62-29.3 286.12-29.25 285.62-29.2 285.47-29.2L285.47-29.2 285.27-29.5 285.67-32.1Q286.27-32.1 287.97-32.02 289.67-31.95 291.37-31.95L291.37-31.95Q293.57-31.95 295.89-32.02 298.22-32.1 299.12-32.15L299.12-32.15Q304.02-32.15 307.72-30.3 311.42-28.45 313.44-25.08 315.47-21.7 315.47-17.2L315.47-17.2Q315.47-12.15 313.22-8.1 310.97-4.05 306.99-1.73 303.02 0.6 298.12 0.6L298.12 0.6ZM296.02-28.9Q295.07-28.9 294.74-28.68 294.42-28.45 294.37-27.75L294.37-27.75 294.32-26.45Q293.67-10.95 293.67-6.85L293.67-6.85Q293.67-5.15 294.12-4.28 294.57-3.4 295.72-3.05 296.87-2.7 299.07-2.7L299.07-2.7Q304.02-2.7 306.74-6.15 309.47-9.6 309.47-15.85L309.47-15.85Q309.47-22.35 306.07-25.63 302.67-28.9 296.02-28.9L296.02-28.9ZM356.3 0.6Q351.3 0.6 348.35-2.48 345.4-5.55 345.4-10.65L345.4-10.65Q345.4-14.1 346.92-17.03 348.45-19.95 351.07-21.68 353.7-23.4 356.8-23.4L356.8-23.4Q360.7-23.4 362.7-21.43 364.7-19.45 364.7-15.6L364.7-15.6Q364.7-14.05 364.4-12.95L364.4-12.95 363.75-12.4 350.35-12.4Q350.35-8.1 352.17-5.8 354-3.5 357.35-3.5L357.35-3.5Q360.15-3.5 363.35-5L363.35-5 363.65-4.85 364.35-2.95Q362.55-1.6 360.25-0.5 357.95 0.6 356.3 0.6L356.3 0.6ZM350.45-14.65L358.5-15.05Q359.15-15.1 359.37-15.35 359.6-15.6 359.6-16.3L359.6-16.3Q359.6-18.2 358.65-19.23 357.7-20.25 355.9-20.25L355.9-20.25Q353.75-20.25 352.27-18.78 350.8-17.3 350.45-14.65L350.45-14.65ZM401.83 0.8Q401.13-1.55 399.06-8.47 396.98-15.4 396.13-17.95L396.13-17.95Q395.28-20.45 392.83-20.5L392.83-20.5 392.73-20.7 393.08-22.85 397.48-22.8Q399.43-22.8 401.36-22.95 403.28-23.1 403.83-23.15L403.83-23.15 403.93-22.9 403.58-20.75Q401.93-20.65 401.41-20.4 400.88-20.15 400.88-19.45L400.88-19.45Q400.88-18.6 402.43-12.78 403.98-6.95 404.58-4.9L404.58-4.9 404.93-4.9Q405.68-6.85 405.93-7.4L405.93-7.4Q408.38-13.7 409.28-16.18 410.18-18.65 410.18-19.35L410.18-19.35Q410.18-20 409.78-20.23 409.38-20.45 408.23-20.45L408.23-20.45 406.58-20.45 406.38-20.75 406.68-22.85 412.13-22.8 416.43-22.85 416.03-20.5Q414.93-20.3 414.41-19.68 413.88-19.05 413.03-17.1L413.03-17.1 406.28 0 401.83 0.8ZM454.47 0.6Q449.47 0.6 446.52-2.48 443.57-5.55 443.57-10.65L443.57-10.65Q443.57-14.1 445.09-17.03 446.62-19.95 449.24-21.68 451.87-23.4 454.97-23.4L454.97-23.4Q458.87-23.4 460.87-21.43 462.87-19.45 462.87-15.6L462.87-15.6Q462.87-14.05 462.57-12.95L462.57-12.95 461.92-12.4 448.52-12.4Q448.52-8.1 450.34-5.8 452.17-3.5 455.52-3.5L455.52-3.5Q458.32-3.5 461.52-5L461.52-5 461.82-4.85 462.52-2.95Q460.72-1.6 458.42-0.5 456.12 0.6 454.47 0.6L454.47 0.6ZM448.62-14.65L456.67-15.05Q457.32-15.1 457.54-15.35 457.77-15.6 457.77-16.3L457.77-16.3Q457.77-18.2 456.82-19.23 455.87-20.25 454.07-20.25L454.07-20.25Q451.92-20.25 450.44-18.78 448.97-17.3 448.62-14.65L448.62-14.65ZM492.45 0.55L492.75-2Q494-2.3 494.57-2.85 495.15-3.4 495.27-4.23 495.4-5.05 495.4-6.75L495.4-6.75 495.4-30.65Q495.4-32.25 495.02-32.8 494.65-33.35 493.45-33.35L493.45-33.35Q492.75-33.35 492.3-33.3L492.3-33.3 492.1-33.45 492.35-35.6Q496.85-36.15 501-37.1L501-37.1 501.3-36.3Q500.7-35.1 500.27-25.85 499.85-16.6 499.85-5.05L499.85-5.05Q499.85-3.7 500.22-3.1 500.6-2.5 501.5-2.5L501.5-2.5 503.2-2.6 503.3-2.35 502.85 0.15Q502.2 0.15 501.8 0.1L501.8 0.1Q499.3 0 497.85 0L497.85 0Q495.65 0 492.45 0.55L492.45 0.55ZM542.53 0.6Q539.53 0.6 537.26-0.83 534.98-2.25 533.71-4.8 532.43-7.35 532.43-10.65L532.43-10.65Q532.43-14.3 533.96-17.2 535.48-20.1 538.18-21.75 540.88-23.4 544.23-23.4L544.23-23.4Q547.23-23.4 549.53-22 551.83-20.6 553.08-18.05 554.33-15.5 554.33-12.15L554.33-12.15Q554.33-8.5 552.81-5.6 551.28-2.7 548.58-1.05 545.88 0.6 542.53 0.6L542.53 0.6ZM543.73-2.45Q546.23-2.45 547.66-4.48 549.08-6.5 549.08-10.15L549.08-10.15Q549.08-14.75 547.41-17.4 545.73-20.05 542.88-20.05L542.88-20.05Q540.38-20.05 538.98-18 537.58-15.95 537.58-12.3L537.58-12.3Q537.58-7.7 539.26-5.08 540.93-2.45 543.73-2.45L543.73-2.45ZM584.67 11.85L584.97 9.4Q586.52 9.2 586.97 8.58 587.42 7.95 587.42 6L587.42 6Q587.57 0.75 587.57-2.05L587.57-2.05 587.57-16.6Q587.57-18.3 587.04-18.95 586.52-19.6 585.17-19.6L585.17-19.6 584.57-19.6 584.37-19.85 584.57-21.9Q587.02-22.25 589.42-22.78 591.82-23.3 592.52-23.45L592.52-23.45 592.92-23Q592.87-22.75 592.67-21.85 592.47-20.95 592.37-20.1L592.37-20.1 592.57-19.8Q596.97-23.25 598.02-23.25L598.02-23.25Q600.92-23.25 603.14-21.9 605.37-20.55 606.59-18.13 607.82-15.7 607.82-12.5L607.82-12.5Q607.82-8.8 606.12-5.83 604.42-2.85 601.49-1.15 598.57 0.55 594.97 0.55L594.97 0.55Q594.07 0.55 593.19 0.5 592.32 0.45 592.02 0.4L592.02 0.4 592.02 5.3Q592.02 7.5 592.44 8.28 592.87 9.05 594.17 9.05L594.17 9.05Q594.67 9.05 595.17 9 595.67 8.95 596.02 8.95L596.02 8.95 596.12 9.15 595.67 11.55 590.32 11.5Q588.52 11.5 586.84 11.65 585.17 11.8 584.67 11.85L584.67 11.85ZM596.57-2.8Q599.52-2.8 601.17-4.88 602.82-6.95 602.82-10.6L602.82-10.6Q602.82-13.05 602.07-15 601.32-16.95 599.97-18.05 598.62-19.15 596.97-19.15L596.97-19.15Q596.07-19.15 594.84-18.6 593.62-18.05 592.47-17.15L592.47-17.15Q592.12-10.05 592.12-3.65L592.12-3.65Q592.97-3.3 594.19-3.05 595.42-2.8 596.57-2.8L596.57-2.8ZM638 11.85L638.3 9.4Q639.85 9.2 640.3 8.58 640.75 7.95 640.75 6L640.75 6Q640.9 0.75 640.9-2.05L640.9-2.05 640.9-16.6Q640.9-18.3 640.37-18.95 639.85-19.6 638.5-19.6L638.5-19.6 637.9-19.6 637.7-19.85 637.9-21.9Q640.35-22.25 642.75-22.78 645.15-23.3 645.85-23.45L645.85-23.45 646.25-23Q646.2-22.75 646-21.85 645.8-20.95 645.7-20.1L645.7-20.1 645.9-19.8Q650.3-23.25 651.35-23.25L651.35-23.25Q654.25-23.25 656.47-21.9 658.7-20.55 659.92-18.13 661.15-15.7 661.15-12.5L661.15-12.5Q661.15-8.8 659.45-5.83 657.75-2.85 654.82-1.15 651.9 0.55 648.3 0.55L648.3 0.55Q647.4 0.55 646.52 0.5 645.65 0.45 645.35 0.4L645.35 0.4 645.35 5.3Q645.35 7.5 645.77 8.28 646.2 9.05 647.5 9.05L647.5 9.05Q648 9.05 648.5 9 649 8.95 649.35 8.95L649.35 8.95 649.45 9.15 649 11.55 643.65 11.5Q641.85 11.5 640.17 11.65 638.5 11.8 638 11.85L638 11.85ZM649.9-2.8Q652.85-2.8 654.5-4.88 656.15-6.95 656.15-10.6L656.15-10.6Q656.15-13.05 655.4-15 654.65-16.95 653.3-18.05 651.95-19.15 650.3-19.15L650.3-19.15Q649.4-19.15 648.17-18.6 646.95-18.05 645.8-17.15L645.8-17.15Q645.45-10.05 645.45-3.65L645.45-3.65Q646.3-3.3 647.52-3.05 648.75-2.8 649.9-2.8L649.9-2.8ZM701.88 0.6Q696.88 0.6 693.93-2.48 690.98-5.55 690.98-10.65L690.98-10.65Q690.98-14.1 692.51-17.03 694.03-19.95 696.66-21.68 699.28-23.4 702.38-23.4L702.38-23.4Q706.28-23.4 708.28-21.43 710.28-19.45 710.28-15.6L710.28-15.6Q710.28-14.05 709.98-12.95L709.98-12.95 709.33-12.4 695.93-12.4Q695.93-8.1 697.76-5.8 699.58-3.5 702.93-3.5L702.93-3.5Q705.73-3.5 708.93-5L708.93-5 709.23-4.85 709.93-2.95Q708.13-1.6 705.83-0.5 703.53 0.6 701.88 0.6L701.88 0.6ZM696.03-14.65L704.08-15.05Q704.73-15.1 704.96-15.35 705.18-15.6 705.18-16.3L705.18-16.3Q705.18-18.2 704.23-19.23 703.28-20.25 701.48-20.25L701.48-20.25Q699.33-20.25 697.86-18.78 696.38-17.3 696.03-14.65L696.03-14.65ZM743.02-17.1Q743.02-19.7 741.27-19.7L741.27-19.7Q740.82-19.7 740.44-19.65 740.07-19.6 739.97-19.55L739.97-19.55 740.22-21.85Q742.47-22.2 744.99-22.73 747.52-23.25 748.27-23.4L748.27-23.4 748.62-22.7Q748.12-21.45 747.72-17.03 747.32-12.6 747.32-8.15L747.32-8.15Q747.32-5.85 748.19-4.75 749.07-3.65 750.92-3.65L750.92-3.65Q752.22-3.65 753.39-4.28 754.57-4.9 756.22-6.05L756.22-6.05 756.22-17.05Q756.22-18.55 755.69-19.1 755.17-19.65 753.82-19.65L753.82-19.65 752.82-19.6 753.07-21.9Q755.52-22.2 758.14-22.7 760.77-23.2 761.52-23.35L761.52-23.35 761.87-22.65Q761.37-21.5 761.02-16.57 760.67-11.65 760.67-5.85L760.67-5.85Q760.67-4.85 761.17-4.25 761.67-3.65 762.57-3.65L762.57-3.65Q763.22-3.65 763.82-3.9 764.42-4.15 764.82-4.4 765.22-4.65 765.32-4.75L765.32-4.75 766.07-3.85Q765.87-3.55 765.09-2.53 764.32-1.5 763.27-0.5 762.22 0.5 761.32 0.6L761.32 0.6Q757.02 0.6 756.57-3.35L756.57-3.35 756.27-3.5Q754.07-1.7 752.32-0.55 750.57 0.6 749.92 0.6L749.92 0.6Q746.42 0.6 744.59-0.95 742.77-2.5 742.77-5.45L742.77-5.45 743.02-17.1ZM801.25 0.6Q799.55 0.6 798.17 0.33 796.8 0.05 796-0.23 795.2-0.5 795-0.6L795-0.6 794.8-1Q794.95-1.95 795.15-4.17 795.35-6.4 795.4-7.65L795.4-7.65 797.6-7.9Q797.65-4.95 798.75-3.65 799.85-2.35 802.3-2.35L802.3-2.35Q803.95-2.35 805.1-3.1 806.25-3.85 806.25-4.95L806.25-4.95Q806.25-6.1 805.15-7.03 804.05-7.95 800.8-9.6L800.8-9.6Q797.9-11.05 796.57-12.58 795.25-14.1 795.25-16.05L795.25-16.05Q795.25-18.15 796.5-19.83 797.75-21.5 799.97-22.45 802.2-23.4 804.95-23.4L804.95-23.4Q806.25-23.4 807.42-23.2 808.6-23 809.32-22.8 810.05-22.6 810.25-22.55L810.25-22.55 810.4-22.2Q810.3-21.7 809.95-19.85 809.6-18 809.45-15.95L809.45-15.95 807.15-15.75Q807.15-15.9 807.2-16.25 807.25-16.6 807.25-16.95L807.25-16.95Q807.25-18.75 806.32-19.58 805.4-20.4 803.45-20.4L803.45-20.4Q801.9-20.4 800.85-19.68 799.8-18.95 799.8-17.9L799.8-17.9Q799.8-16.8 800.72-15.88 801.65-14.95 803.75-13.85L803.75-13.85Q806.55-12.45 808.1-11.35 809.65-10.25 810.27-9.18 810.9-8.1 810.9-6.7L810.9-6.7Q810.9-4.75 809.6-3.08 808.3-1.4 806.07-0.4 803.85 0.6 801.25 0.6L801.25 0.6ZM852.18 0.6Q847.18 0.6 844.23-2.48 841.28-5.55 841.28-10.65L841.28-10.65Q841.28-14.1 842.81-17.03 844.33-19.95 846.96-21.68 849.58-23.4 852.68-23.4L852.68-23.4Q856.58-23.4 858.58-21.43 860.58-19.45 860.58-15.6L860.58-15.6Q860.58-14.05 860.28-12.95L860.28-12.95 859.63-12.4 846.23-12.4Q846.23-8.1 848.06-5.8 849.88-3.5 853.23-3.5L853.23-3.5Q856.03-3.5 859.23-5L859.23-5 859.53-4.85 860.23-2.95Q858.43-1.6 856.13-0.5 853.83 0.6 852.18 0.6L852.18 0.6ZM846.33-14.65L854.38-15.05Q855.03-15.1 855.26-15.35 855.48-15.6 855.48-16.3L855.48-16.3Q855.48-18.2 854.53-19.23 853.58-20.25 851.78-20.25L851.78-20.25Q849.63-20.25 848.16-18.78 846.68-17.3 846.33-14.65L846.33-14.65Z" opacity="1" transform="matrix(1,0,0,1,0,0)" fill="#edbbba" class="undefined-text-1" data-fill-palette-color="secondary" id="text-1"></path></svg></g></svg></g></svg></g></svg></g><g transform="matrix(1,0,0,1,72.78653336396535,0)"><svg viewBox="0 0 46.426933272069306 32.38041310762963" height="32.38041310762963" width="46.426933272069306"><g><svg xmlns="http://www.w3.org/2000/svg" xmlns:xlink="http://www.w3.org/1999/xlink" version="1.1" x="0" y="0" viewBox="1.0119999647140503 8.211999893188477 47.625 33.21600341796875" enable-background="new 0 0 50 50" xml:space="preserve" height="32.38041310762963" width="46.426933272069306" class="icon-icon-0" data-fill-palette-color="accent" id="icon-0"><g fill="#edbbba" data-fill-palette-color="accent"><polygon fill="#edbbba" points="19.937,10.508 17.653,8.212 1.012,24.792 17.647,41.428 19.94,39.135 5.603,24.794  " data-fill-palette-color="accent"></polygon><polygon fill="#edbbba" points="29.714,10.508 44.046,24.794 29.711,39.135 32.004,41.428 48.637,24.792 32.001,8.212  " data-fill-palette-color="accent"></polygon></g></svg></g></svg></g><g></g></svg></g></svg></g></svg></g></svg></g><defs></defs></svg><rect width="320" height="360" fill="none" stroke="none" visibility="hidden"></rect></g></svg></g></svg>